999
"DXF R12 Output" (www.mydxf.blogspot.com)
 0 
SECTION
 2 
HEADER
 9 
$ACADVER
 1 
AC1009
 9 
$EXTMIN
 10 
 0 
 20 
 0 
 9 
$EXTMAX
 10 
 8.5 
 20 
 11 
 0 
ENDSEC
 0 
SECTION
 2 
ENTITIES
0
LINE
8
Layer 1
10
-1170.860000
20
-428.548000
11
1317.270000
21
-424.258100
0
LINE
8
Layer 1
10
1317.270000
20
-424.258100
11
1319.240034
21
-422.847337
0
LINE
8
Layer 1
10
1319.240034
20
-422.847337
11
1324.785666
21
-418.602481
0
LINE
8
Layer 1
10
1324.785666
20
-418.602481
11
1333.360187
21
-411.504680
0
LINE
8
Layer 1
10
1333.360187
20
-411.504680
11
1338.612435
21
-406.880035
0
LINE
8
Layer 1
10
1338.612435
20
-406.880035
11
1344.416891
21
-401.535084
0
LINE
8
Layer 1
10
1344.416891
20
-401.535084
11
1350.705215
21
-395.467472
0
LINE
8
Layer 1
10
1350.705215
20
-395.467472
11
1357.409069
21
-388.674842
0
LINE
8
Layer 1
10
1357.409069
20
-388.674842
11
1364.460114
21
-381.154837
0
LINE
8
Layer 1
10
1364.460114
20
-381.154837
11
1371.790014
21
-372.905102
0
LINE
8
Layer 1
10
1371.790014
20
-372.905102
11
1379.330428
21
-363.923279
0
LINE
8
Layer 1
10
1379.330428
20
-363.923279
11
1387.013018
21
-354.207013
0
LINE
8
Layer 1
10
1387.013018
20
-354.207013
11
1394.769447
21
-343.753947
0
LINE
8
Layer 1
10
1394.769447
20
-343.753947
11
1402.531375
21
-332.561725
0
LINE
8
Layer 1
10
1402.531375
20
-332.561725
11
1410.230464
21
-320.627990
0
LINE
8
Layer 1
10
1410.230464
20
-320.627990
11
1417.798376
21
-307.950386
0
LINE
8
Layer 1
10
1417.798376
20
-307.950386
11
1425.166772
21
-294.526556
0
LINE
8
Layer 1
10
1425.166772
20
-294.526556
11
1428.754796
21
-287.534071
0
LINE
8
Layer 1
10
1428.754796
20
-287.534071
11
1432.267314
21
-280.354145
0
LINE
8
Layer 1
10
1432.267314
20
-280.354145
11
1435.695784
21
-272.986485
0
LINE
8
Layer 1
10
1435.695784
20
-272.986485
11
1439.031664
21
-265.430795
0
LINE
8
Layer 1
10
1439.031664
20
-265.430795
11
1442.266411
21
-257.686782
0
LINE
8
Layer 1
10
1442.266411
20
-257.686782
11
1445.391482
21
-249.754151
0
LINE
8
Layer 1
10
1445.391482
20
-249.754151
11
1448.398336
21
-241.632607
0
LINE
8
Layer 1
10
1448.398336
20
-241.632607
11
1451.278431
21
-233.321856
0
LINE
8
Layer 1
10
1451.278431
20
-233.321856
11
1454.023224
21
-224.821603
0
LINE
8
Layer 1
10
1454.023224
20
-224.821603
11
1456.624172
21
-216.131553
0
LINE
8
Layer 1
10
1456.624172
20
-216.131553
11
1459.072734
21
-207.251413
0
LINE
8
Layer 1
10
1459.072734
20
-207.251413
11
1461.360366
21
-198.180887
0
LINE
8
Layer 1
10
1461.360366
20
-198.180887
11
1463.478528
21
-188.919681
0
LINE
8
Layer 1
10
1463.478528
20
-188.919681
11
1465.418676
21
-179.467500
0
LINE
8
Layer 1
10
1465.418676
20
-179.467500
11
1467.172268
21
-169.824050
0
LINE
8
Layer 1
10
1467.172268
20
-169.824050
11
1468.730762
21
-159.989037
0
LINE
8
Layer 1
10
1468.730762
20
-159.989037
11
1470.085616
21
-149.962165
0
LINE
8
Layer 1
10
1470.085616
20
-149.962165
11
1471.228287
21
-139.743141
0
LINE
8
Layer 1
10
1471.228287
20
-139.743141
11
1472.150233
21
-129.331669
0
LINE
8
Layer 1
10
1472.150233
20
-129.331669
11
1472.842912
21
-118.727456
0
LINE
8
Layer 1
10
1472.842912
20
-118.727456
11
1473.297781
21
-107.930206
0
LINE
8
Layer 1
10
1473.297781
20
-107.930206
11
1473.506298
21
-96.939625
0
LINE
8
Layer 1
10
1473.506298
20
-96.939625
11
1473.459920
21
-85.755418
0
LINE
8
Layer 1
10
1473.459920
20
-85.755418
11
1473.150107
21
-74.377292
0
LINE
8
Layer 1
10
1473.150107
20
-74.377292
11
1472.568314
21
-62.804950
0
LINE
8
Layer 1
10
1472.568314
20
-62.804950
11
1471.706000
21
-51.038100
0
LINE
8
Layer 1
10
1471.706000
20
-51.038100
11
1469.793699
21
-26.418541
0
LINE
8
Layer 1
10
1469.793699
20
-26.418541
11
1467.970159
21
-0.121935
0
LINE
8
Layer 1
10
1467.970159
20
-0.121935
11
1466.072782
21
27.693833
0
LINE
8
Layer 1
10
1466.072782
20
27.693833
11
1463.938969
21
56.870877
0
LINE
8
Layer 1
10
1463.938969
20
56.870877
11
1461.406121
21
87.251310
0
LINE
8
Layer 1
10
1461.406121
20
87.251310
11
1458.311639
21
118.677247
0
LINE
8
Layer 1
10
1458.311639
20
118.677247
11
1456.502973
21
134.732940
0
LINE
8
Layer 1
10
1456.502973
20
134.732940
11
1454.492924
21
150.990801
0
LINE
8
Layer 1
10
1454.492924
20
150.990801
11
1452.261167
21
167.431096
0
LINE
8
Layer 1
10
1452.261167
20
167.431096
11
1449.787378
21
184.034088
0
LINE
8
Layer 1
10
1449.787378
20
184.034088
11
1447.051231
21
200.780041
0
LINE
8
Layer 1
10
1447.051231
20
200.780041
11
1444.032402
21
217.649219
0
LINE
8
Layer 1
10
1444.032402
20
217.649219
11
1440.710565
21
234.621888
0
LINE
8
Layer 1
10
1440.710565
20
234.621888
11
1437.065397
21
251.678311
0
LINE
8
Layer 1
10
1437.065397
20
251.678311
11
1433.076571
21
268.798752
0
LINE
8
Layer 1
10
1433.076571
20
268.798752
11
1428.723764
21
285.963477
0
LINE
8
Layer 1
10
1428.723764
20
285.963477
11
1423.986650
21
303.152748
0
LINE
8
Layer 1
10
1423.986650
20
303.152748
11
1418.844904
21
320.346830
0
LINE
8
Layer 1
10
1418.844904
20
320.346830
11
1413.278202
21
337.525987
0
LINE
8
Layer 1
10
1413.278202
20
337.525987
11
1407.266219
21
354.670485
0
LINE
8
Layer 1
10
1407.266219
20
354.670485
11
1400.788630
21
371.760586
0
LINE
8
Layer 1
10
1400.788630
20
371.760586
11
1393.825110
21
388.776555
0
LINE
8
Layer 1
10
1393.825110
20
388.776555
11
1386.355335
21
405.698657
0
LINE
8
Layer 1
10
1386.355335
20
405.698657
11
1378.358979
21
422.507156
0
LINE
8
Layer 1
10
1378.358979
20
422.507156
11
1369.815717
21
439.182315
0
LINE
8
Layer 1
10
1369.815717
20
439.182315
11
1360.705225
21
455.704400
0
LINE
8
Layer 1
10
1360.705225
20
455.704400
11
1355.930916
21
463.901872
0
LINE
8
Layer 1
10
1355.930916
20
463.901872
11
1351.007178
21
472.053674
0
LINE
8
Layer 1
10
1351.007178
20
472.053674
11
1345.931470
21
480.157340
0
LINE
8
Layer 1
10
1345.931470
20
480.157340
11
1340.701251
21
488.210402
0
LINE
8
Layer 1
10
1340.701251
20
488.210402
11
1335.313981
21
496.210394
0
LINE
8
Layer 1
10
1335.313981
20
496.210394
11
1329.767119
21
504.154848
0
LINE
8
Layer 1
10
1329.767119
20
504.154848
11
1324.058125
21
512.041298
0
LINE
8
Layer 1
10
1324.058125
20
512.041298
11
1318.184457
21
519.867276
0
LINE
8
Layer 1
10
1318.184457
20
519.867276
11
1312.143577
21
527.630316
0
LINE
8
Layer 1
10
1312.143577
20
527.630316
11
1305.932941
21
535.327950
0
LINE
8
Layer 1
10
1305.932941
20
535.327950
11
1299.550011
21
542.957713
0
LINE
8
Layer 1
10
1299.550011
20
542.957713
11
1292.992246
21
550.517136
0
LINE
8
Layer 1
10
1292.992246
20
550.517136
11
1286.257104
21
558.003752
0
LINE
8
Layer 1
10
1286.257104
20
558.003752
11
1279.342046
21
565.415096
0
LINE
8
Layer 1
10
1279.342046
20
565.415096
11
1272.244531
21
572.748699
0
LINE
8
Layer 1
10
1272.244531
20
572.748699
11
1264.962018
21
580.002095
0
LINE
8
Layer 1
10
1264.962018
20
580.002095
11
1257.491966
21
587.172817
0
LINE
8
Layer 1
10
1257.491966
20
587.172817
11
1249.831835
21
594.258398
0
LINE
8
Layer 1
10
1249.831835
20
594.258398
11
1241.979084
21
601.256371
0
LINE
8
Layer 1
10
1241.979084
20
601.256371
11
1233.931174
21
608.164269
0
LINE
8
Layer 1
10
1233.931174
20
608.164269
11
1225.685562
21
614.979625
0
LINE
8
Layer 1
10
1225.685562
20
614.979625
11
1217.239708
21
621.699971
0
LINE
8
Layer 1
10
1217.239708
20
621.699971
11
1208.591073
21
628.322842
0
LINE
8
Layer 1
10
1208.591073
20
628.322842
11
1199.737115
21
634.845770
0
LINE
8
Layer 1
10
1199.737115
20
634.845770
11
1190.675294
21
641.266288
0
LINE
8
Layer 1
10
1190.675294
20
641.266288
11
1181.403068
21
647.581929
0
LINE
8
Layer 1
10
1181.403068
20
647.581929
11
1171.917898
21
653.790227
0
LINE
8
Layer 1
10
1171.917898
20
653.790227
11
1162.217243
21
659.888713
0
LINE
8
Layer 1
10
1162.217243
20
659.888713
11
1152.298562
21
665.874922
0
LINE
8
Layer 1
10
1152.298562
20
665.874922
11
1142.159315
21
671.746386
0
LINE
8
Layer 1
10
1142.159315
20
671.746386
11
1131.796961
21
677.500639
0
LINE
8
Layer 1
10
1131.796961
20
677.500639
11
1121.208959
21
683.135213
0
LINE
8
Layer 1
10
1121.208959
20
683.135213
11
1110.392769
21
688.647641
0
LINE
8
Layer 1
10
1110.392769
20
688.647641
11
1099.345851
21
694.035456
0
LINE
8
Layer 1
10
1099.345851
20
694.035456
11
1088.065663
21
699.296192
0
LINE
8
Layer 1
10
1088.065663
20
699.296192
11
1076.549665
21
704.427382
0
LINE
8
Layer 1
10
1076.549665
20
704.427382
11
1064.795316
21
709.426557
0
LINE
8
Layer 1
10
1064.795316
20
709.426557
11
1052.800076
21
714.291253
0
LINE
8
Layer 1
10
1052.800076
20
714.291253
11
1040.561405
21
719.019001
0
LINE
8
Layer 1
10
1040.561405
20
719.019001
11
1028.076760
21
723.607335
0
LINE
8
Layer 1
10
1028.076760
20
723.607335
11
1015.343603
21
728.053787
0
LINE
8
Layer 1
10
1015.343603
20
728.053787
11
1002.359393
21
732.355891
0
LINE
8
Layer 1
10
1002.359393
20
732.355891
11
989.121588
21
736.511179
0
LINE
8
Layer 1
10
989.121588
20
736.511179
11
975.627648
21
740.517186
0
LINE
8
Layer 1
10
975.627648
20
740.517186
11
961.875032
21
744.371443
0
LINE
8
Layer 1
10
961.875032
20
744.371443
11
947.861201
21
748.071483
0
LINE
8
Layer 1
10
947.861201
20
748.071483
11
933.583613
21
751.614841
0
LINE
8
Layer 1
10
933.583613
20
751.614841
11
919.039728
21
754.999048
0
LINE
8
Layer 1
10
919.039728
20
754.999048
11
904.227005
21
758.221639
0
LINE
8
Layer 1
10
904.227005
20
758.221639
11
889.142903
21
761.280145
0
LINE
8
Layer 1
10
889.142903
20
761.280145
11
873.784882
21
764.172100
0
LINE
8
Layer 1
10
873.784882
20
764.172100
11
858.150402
21
766.895037
0
LINE
8
Layer 1
10
858.150402
20
766.895037
11
842.236921
21
769.446489
0
LINE
8
Layer 1
10
842.236921
20
769.446489
11
826.041899
21
771.823990
0
LINE
8
Layer 1
10
826.041899
20
771.823990
11
809.562796
21
774.025071
0
LINE
8
Layer 1
10
809.562796
20
774.025071
11
792.797071
21
776.047266
0
LINE
8
Layer 1
10
792.797071
20
776.047266
11
775.742183
21
777.888109
0
LINE
8
Layer 1
10
775.742183
20
777.888109
11
758.395592
21
779.545131
0
LINE
8
Layer 1
10
758.395592
20
779.545131
11
740.754757
21
781.015867
0
LINE
8
Layer 1
10
740.754757
20
781.015867
11
722.817137
21
782.297849
0
LINE
8
Layer 1
10
722.817137
20
782.297849
11
704.580192
21
783.388610
0
LINE
8
Layer 1
10
704.580192
20
783.388610
11
686.041381
21
784.285684
0
LINE
8
Layer 1
10
686.041381
20
784.285684
11
667.198164
21
784.986603
0
LINE
8
Layer 1
10
667.198164
20
784.986603
11
648.048000
21
785.488900
0
LINE
8
Layer 1
10
648.048000
20
785.488900
11
609.638060
21
786.134613
0
LINE
8
Layer 1
10
609.638060
20
786.134613
11
571.630498
21
786.469464
0
LINE
8
Layer 1
10
571.630498
20
786.469464
11
534.031793
21
786.503076
0
LINE
8
Layer 1
10
534.031793
20
786.503076
11
496.848427
21
786.245070
0
LINE
8
Layer 1
10
496.848427
20
786.245070
11
460.086880
21
785.705070
0
LINE
8
Layer 1
10
460.086880
20
785.705070
11
423.753630
21
784.892697
0
LINE
8
Layer 1
10
423.753630
20
784.892697
11
387.855160
21
783.817574
0
LINE
8
Layer 1
10
387.855160
20
783.817574
11
352.397949
21
782.489323
0
LINE
8
Layer 1
10
352.397949
20
782.489323
11
317.388478
21
780.917567
0
LINE
8
Layer 1
10
317.388478
20
780.917567
11
282.833226
21
779.111928
0
LINE
8
Layer 1
10
282.833226
20
779.111928
11
248.738673
21
777.082029
0
LINE
8
Layer 1
10
248.738673
20
777.082029
11
215.111301
21
774.837491
0
LINE
8
Layer 1
10
215.111301
20
774.837491
11
181.957590
21
772.387938
0
LINE
8
Layer 1
10
181.957590
20
772.387938
11
149.284018
21
769.742991
0
LINE
8
Layer 1
10
149.284018
20
769.742991
11
117.097068
21
766.912274
0
LINE
8
Layer 1
10
117.097068
20
766.912274
11
85.403219
21
763.905408
0
LINE
8
Layer 1
10
85.403219
20
763.905408
11
54.208951
21
760.732016
0
LINE
8
Layer 1
10
54.208951
20
760.732016
11
23.520744
21
757.401719
0
LINE
8
Layer 1
10
23.520744
20
757.401719
11
-6.654920
21
753.924142
0
LINE
8
Layer 1
10
-6.654920
20
753.924142
11
-36.311563
21
750.308905
0
LINE
8
Layer 1
10
-36.311563
20
750.308905
11
-65.442703
21
746.565632
0
LINE
8
Layer 1
10
-65.442703
20
746.565632
11
-94.041861
21
742.703945
0
LINE
8
Layer 1
10
-94.041861
20
742.703945
11
-122.102556
21
738.733466
0
LINE
8
Layer 1
10
-122.102556
20
738.733466
11
-149.618309
21
734.663817
0
LINE
8
Layer 1
10
-149.618309
20
734.663817
11
-176.582638
21
730.504621
0
LINE
8
Layer 1
10
-176.582638
20
730.504621
11
-202.989063
21
726.265501
0
LINE
8
Layer 1
10
-202.989063
20
726.265501
11
-228.831105
21
721.956078
0
LINE
8
Layer 1
10
-228.831105
20
721.956078
11
-254.102283
21
717.585975
0
LINE
8
Layer 1
10
-254.102283
20
717.585975
11
-302.906126
21
708.702219
0
LINE
8
Layer 1
10
-302.906126
20
708.702219
11
-349.348750
21
699.691213
0
LINE
8
Layer 1
10
-349.348750
20
699.691213
11
-393.378314
21
690.629934
0
LINE
8
Layer 1
10
-393.378314
20
690.629934
11
-434.942975
21
681.595362
0
LINE
8
Layer 1
10
-434.942975
20
681.595362
11
-473.990892
21
672.664477
0
LINE
8
Layer 1
10
-473.990892
20
672.664477
11
-510.470223
21
663.914256
0
LINE
8
Layer 1
10
-510.470223
20
663.914256
11
-544.329125
21
655.421681
0
LINE
8
Layer 1
10
-544.329125
20
655.421681
11
-575.515757
21
647.263728
0
LINE
8
Layer 1
10
-575.515757
20
647.263728
11
-603.978278
21
639.517379
0
LINE
8
Layer 1
10
-603.978278
20
639.517379
11
-629.664844
21
632.259611
0
LINE
8
Layer 1
10
-629.664844
20
632.259611
11
-652.523614
21
625.567404
0
LINE
8
Layer 1
10
-652.523614
20
625.567404
11
-672.502747
21
619.517737
0
LINE
8
Layer 1
10
-672.502747
20
619.517737
11
-689.550399
21
614.187588
0
LINE
8
Layer 1
10
-689.550399
20
614.187588
11
-703.614730
21
609.653938
0
LINE
8
Layer 1
10
-703.614730
20
609.653938
11
-722.586060
21
603.284048
0
LINE
8
Layer 1
10
-722.586060
20
603.284048
11
-729.002000
21
601.023900
0
LINE
8
Layer 1
10
-729.002000
20
601.023900
11
-737.451893
21
597.237788
0
LINE
8
Layer 1
10
-737.451893
20
597.237788
11
-747.509969
21
592.487474
0
LINE
8
Layer 1
10
-747.509969
20
592.487474
11
-761.008537
21
585.816613
0
LINE
8
Layer 1
10
-761.008537
20
585.816613
11
-777.611405
21
577.213421
0
LINE
8
Layer 1
10
-777.611405
20
577.213421
11
-796.982377
21
566.666117
0
LINE
8
Layer 1
10
-796.982377
20
566.666117
11
-807.600842
21
560.659740
0
LINE
8
Layer 1
10
-807.600842
20
560.659740
11
-818.785260
21
554.162917
0
LINE
8
Layer 1
10
-818.785260
20
554.162917
11
-830.493607
21
547.174175
0
LINE
8
Layer 1
10
-830.493607
20
547.174175
11
-842.683859
21
539.692041
0
LINE
8
Layer 1
10
-842.683859
20
539.692041
11
-855.313992
21
531.715041
0
LINE
8
Layer 1
10
-855.313992
20
531.715041
11
-868.341981
21
523.241705
0
LINE
8
Layer 1
10
-868.341981
20
523.241705
11
-881.725801
21
514.270557
0
LINE
8
Layer 1
10
-881.725801
20
514.270557
11
-895.423429
21
504.800127
0
LINE
8
Layer 1
10
-895.423429
20
504.800127
11
-909.392841
21
494.828940
0
LINE
8
Layer 1
10
-909.392841
20
494.828940
11
-923.592012
21
484.355525
0
LINE
8
Layer 1
10
-923.592012
20
484.355525
11
-937.978917
21
473.378408
0
LINE
8
Layer 1
10
-937.978917
20
473.378408
11
-952.511533
21
461.896117
0
LINE
8
Layer 1
10
-952.511533
20
461.896117
11
-967.147835
21
449.907178
0
LINE
8
Layer 1
10
-967.147835
20
449.907178
11
-981.845800
21
437.410120
0
LINE
8
Layer 1
10
-981.845800
20
437.410120
11
-996.563401
21
424.403469
0
LINE
8
Layer 1
10
-996.563401
20
424.403469
11
-1011.258616
21
410.885752
0
LINE
8
Layer 1
10
-1011.258616
20
410.885752
11
-1025.889421
21
396.855497
0
LINE
8
Layer 1
10
-1025.889421
20
396.855497
11
-1040.413790
21
382.311231
0
LINE
8
Layer 1
10
-1040.413790
20
382.311231
11
-1054.789699
21
367.251482
0
LINE
8
Layer 1
10
-1054.789699
20
367.251482
11
-1068.975125
21
351.674775
0
LINE
8
Layer 1
10
-1068.975125
20
351.674775
11
-1082.928043
21
335.579639
0
LINE
8
Layer 1
10
-1082.928043
20
335.579639
11
-1096.606428
21
318.964601
0
LINE
8
Layer 1
10
-1096.606428
20
318.964601
11
-1109.968257
21
301.828188
0
LINE
8
Layer 1
10
-1109.968257
20
301.828188
11
-1116.517330
21
293.064005
0
LINE
8
Layer 1
10
-1116.517330
20
293.064005
11
-1122.971505
21
284.168927
0
LINE
8
Layer 1
10
-1122.971505
20
284.168927
11
-1129.325528
21
275.142768
0
LINE
8
Layer 1
10
-1129.325528
20
275.142768
11
-1135.574147
21
265.985345
0
LINE
8
Layer 1
10
-1135.574147
20
265.985345
11
-1141.712109
21
256.696474
0
LINE
8
Layer 1
10
-1141.712109
20
256.696474
11
-1147.734160
21
247.275970
0
LINE
8
Layer 1
10
-1147.734160
20
247.275970
11
-1153.635048
21
237.723650
0
LINE
8
Layer 1
10
-1153.635048
20
237.723650
11
-1159.409520
21
228.039329
0
LINE
8
Layer 1
10
-1159.409520
20
228.039329
11
-1165.052322
21
218.222823
0
LINE
8
Layer 1
10
-1165.052322
20
218.222823
11
-1170.558201
21
208.273949
0
LINE
8
Layer 1
10
-1170.558201
20
208.273949
11
-1175.921905
21
198.192521
0
LINE
8
Layer 1
10
-1175.921905
20
198.192521
11
-1181.138180
21
187.978357
0
LINE
8
Layer 1
10
-1181.138180
20
187.978357
11
-1186.201774
21
177.631271
0
LINE
8
Layer 1
10
-1186.201774
20
177.631271
11
-1191.107433
21
167.151081
0
LINE
8
Layer 1
10
-1191.107433
20
167.151081
11
-1195.849904
21
156.537601
0
LINE
8
Layer 1
10
-1195.849904
20
156.537601
11
-1200.423934
21
145.790647
0
LINE
8
Layer 1
10
-1200.423934
20
145.790647
11
-1204.824271
21
134.910036
0
LINE
8
Layer 1
10
-1204.824271
20
134.910036
11
-1209.045660
21
123.895583
0
LINE
8
Layer 1
10
-1209.045660
20
123.895583
11
-1213.082850
21
112.747105
0
LINE
8
Layer 1
10
-1213.082850
20
112.747105
11
-1216.930587
21
101.464417
0
LINE
8
Layer 1
10
-1216.930587
20
101.464417
11
-1220.583618
21
90.047335
0
LINE
8
Layer 1
10
-1220.583618
20
90.047335
11
-1224.036690
21
78.495675
0
LINE
8
Layer 1
10
-1224.036690
20
78.495675
11
-1227.284550
21
66.809252
0
LINE
8
Layer 1
10
-1227.284550
20
66.809252
11
-1230.321945
21
54.987884
0
LINE
8
Layer 1
10
-1230.321945
20
54.987884
11
-1233.143622
21
43.031385
0
LINE
8
Layer 1
10
-1233.143622
20
43.031385
11
-1235.744328
21
30.939572
0
LINE
8
Layer 1
10
-1235.744328
20
30.939572
11
-1238.118810
21
18.712260
0
LINE
8
Layer 1
10
-1238.118810
20
18.712260
11
-1240.261814
21
6.349266
0
LINE
8
Layer 1
10
-1240.261814
20
6.349266
11
-1242.168088
21
-6.149595
0
LINE
8
Layer 1
10
-1242.168088
20
-6.149595
11
-1243.832379
21
-18.784507
0
LINE
8
Layer 1
10
-1243.832379
20
-18.784507
11
-1245.249434
21
-31.555654
0
LINE
8
Layer 1
10
-1245.249434
20
-31.555654
11
-1246.414000
21
-44.463219
0
LINE
8
Layer 1
10
-1246.414000
20
-44.463219
11
-1247.320823
21
-57.507388
0
LINE
8
Layer 1
10
-1247.320823
20
-57.507388
11
-1247.964650
21
-70.688344
0
LINE
8
Layer 1
10
-1247.964650
20
-70.688344
11
-1248.340229
21
-84.006271
0
LINE
8
Layer 1
10
-1248.340229
20
-84.006271
11
-1248.442307
21
-97.461354
0
LINE
8
Layer 1
10
-1248.442307
20
-97.461354
11
-1248.265630
21
-111.053776
0
LINE
8
Layer 1
10
-1248.265630
20
-111.053776
11
-1247.804946
21
-124.783722
0
LINE
8
Layer 1
10
-1247.804946
20
-124.783722
11
-1247.055001
21
-138.651375
0
LINE
8
Layer 1
10
-1247.055001
20
-138.651375
11
-1246.010542
21
-152.656920
0
LINE
8
Layer 1
10
-1246.010542
20
-152.656920
11
-1244.666317
21
-166.800541
0
LINE
8
Layer 1
10
-1244.666317
20
-166.800541
11
-1243.017072
21
-181.082422
0
LINE
8
Layer 1
10
-1243.017072
20
-181.082422
11
-1241.057555
21
-195.502747
0
LINE
8
Layer 1
10
-1241.057555
20
-195.502747
11
-1238.782511
21
-210.061701
0
LINE
8
Layer 1
10
-1238.782511
20
-210.061701
11
-1236.186689
21
-224.759466
0
LINE
8
Layer 1
10
-1236.186689
20
-224.759466
11
-1233.264835
21
-239.596228
0
LINE
8
Layer 1
10
-1233.264835
20
-239.596228
11
-1230.011696
21
-254.572171
0
LINE
8
Layer 1
10
-1230.011696
20
-254.572171
11
-1226.422020
21
-269.687478
0
LINE
8
Layer 1
10
-1226.422020
20
-269.687478
11
-1222.490552
21
-284.942333
0
LINE
8
Layer 1
10
-1222.490552
20
-284.942333
11
-1218.212040
21
-300.336922
0
LINE
8
Layer 1
10
-1218.212040
20
-300.336922
11
-1213.581232
21
-315.871427
0
LINE
8
Layer 1
10
-1213.581232
20
-315.871427
11
-1208.592873
21
-331.546033
0
LINE
8
Layer 1
10
-1208.592873
20
-331.546033
11
-1203.241711
21
-347.360924
0
LINE
8
Layer 1
10
-1203.241711
20
-347.360924
11
-1197.522493
21
-363.316285
0
LINE
8
Layer 1
10
-1197.522493
20
-363.316285
11
-1191.429966
21
-379.412298
0
LINE
8
Layer 1
10
-1191.429966
20
-379.412298
11
-1184.958877
21
-395.649149
0
LINE
8
Layer 1
10
-1184.958877
20
-395.649149
11
-1178.103973
21
-412.027022
0
LINE
8
Layer 1
10
-1178.103973
20
-412.027022
11
-1170.860000
21
-428.546100
0
LINE
8
Layer 1
10
-1170.860000
20
-428.546100
11
-1170.860000
21
-428.548000
 0 
ENDSEC
 0 
EOF