999
"DXF R12 Output" (www.mydxf.blogspot.com)
 0 
SECTION
 2 
HEADER
 9 
$ACADVER
 1 
AC1009
 9 
$EXTMIN
 10 
 0 
 20 
 0 
 9 
$EXTMAX
 10 
 8.5 
 20 
 11 
 0 
ENDSEC
 0 
SECTION
 2 
ENTITIES
0
LINE
8
Layer 1
10
204.469000
20
16.848700
11
2714.539000
21
16.877700
0
LINE
8
Layer 1
10
2714.539000
20
16.877700
11
2716.527005
21
18.297496
0
LINE
8
Layer 1
10
2716.527005
20
18.297496
11
2722.123340
21
22.570192
0
LINE
8
Layer 1
10
2722.123340
20
22.570192
11
2730.776481
21
29.715752
0
LINE
8
Layer 1
10
2730.776481
20
29.715752
11
2736.077003
21
34.372094
0
LINE
8
Layer 1
10
2736.077003
20
34.372094
11
2741.934906
21
39.754137
0
LINE
8
Layer 1
10
2741.934906
20
39.754137
11
2748.281250
21
45.864379
0
LINE
8
Layer 1
10
2748.281250
20
45.864379
11
2755.047093
21
52.705312
0
LINE
8
Layer 1
10
2755.047093
20
52.705312
11
2762.163497
21
60.279434
0
LINE
8
Layer 1
10
2762.163497
20
60.279434
11
2769.561520
21
68.589239
0
LINE
8
Layer 1
10
2769.561520
20
68.589239
11
2777.172222
21
77.637223
0
LINE
8
Layer 1
10
2777.172222
20
77.637223
11
2784.926663
21
87.425881
0
LINE
8
Layer 1
10
2784.926663
20
87.425881
11
2792.755902
21
97.957708
0
LINE
8
Layer 1
10
2792.755902
20
97.957708
11
2800.591000
21
109.235200
0
LINE
8
Layer 1
10
2800.591000
20
109.235200
11
2808.363016
21
121.260852
0
LINE
8
Layer 1
10
2808.363016
20
121.260852
11
2816.003009
21
134.037160
0
LINE
8
Layer 1
10
2816.003009
20
134.037160
11
2823.442040
21
147.566619
0
LINE
8
Layer 1
10
2823.442040
20
147.566619
11
2827.064651
21
154.614559
0
LINE
8
Layer 1
10
2827.064651
20
154.614559
11
2830.611168
21
161.851723
0
LINE
8
Layer 1
10
2830.611168
20
161.851723
11
2834.072974
21
169.278423
0
LINE
8
Layer 1
10
2834.072974
20
169.278423
11
2837.441453
21
176.894970
0
LINE
8
Layer 1
10
2837.441453
20
176.894970
11
2840.707985
21
184.701676
0
LINE
8
Layer 1
10
2840.707985
20
184.701676
11
2843.863954
21
192.698853
0
LINE
8
Layer 1
10
2843.863954
20
192.698853
11
2846.900741
21
200.886814
0
LINE
8
Layer 1
10
2846.900741
20
200.886814
11
2849.809731
21
209.265869
0
LINE
8
Layer 1
10
2849.809731
20
209.265869
11
2852.582304
21
217.836331
0
LINE
8
Layer 1
10
2852.582304
20
217.836331
11
2855.209844
21
226.598512
0
LINE
8
Layer 1
10
2855.209844
20
226.598512
11
2857.683732
21
235.552724
0
LINE
8
Layer 1
10
2857.683732
20
235.552724
11
2859.995352
21
244.699279
0
LINE
8
Layer 1
10
2859.995352
20
244.699279
11
2862.136086
21
254.038488
0
LINE
8
Layer 1
10
2862.136086
20
254.038488
11
2864.097316
21
263.570664
0
LINE
8
Layer 1
10
2864.097316
20
263.570664
11
2865.870425
21
273.296118
0
LINE
8
Layer 1
10
2865.870425
20
273.296118
11
2867.446794
21
283.215163
0
LINE
8
Layer 1
10
2867.446794
20
283.215163
11
2868.817808
21
293.328109
0
LINE
8
Layer 1
10
2868.817808
20
293.328109
11
2869.974848
21
303.635270
0
LINE
8
Layer 1
10
2869.974848
20
303.635270
11
2870.909296
21
314.136957
0
LINE
8
Layer 1
10
2870.909296
20
314.136957
11
2871.612535
21
324.833483
0
LINE
8
Layer 1
10
2871.612535
20
324.833483
11
2872.075948
21
335.725158
0
LINE
8
Layer 1
10
2872.075948
20
335.725158
11
2872.290917
21
346.812295
0
LINE
8
Layer 1
10
2872.290917
20
346.812295
11
2872.248824
21
358.095206
0
LINE
8
Layer 1
10
2872.248824
20
358.095206
11
2871.941052
21
369.574202
0
LINE
8
Layer 1
10
2871.941052
20
369.574202
11
2871.358983
21
381.249596
0
LINE
8
Layer 1
10
2871.358983
20
381.249596
11
2870.494000
21
393.121700
0
LINE
8
Layer 1
10
2870.494000
20
393.121700
11
2868.575274
21
417.961664
0
LINE
8
Layer 1
10
2868.575274
20
417.961664
11
2866.746798
21
444.493309
0
LINE
8
Layer 1
10
2866.746798
20
444.493309
11
2864.844472
21
472.557638
0
LINE
8
Layer 1
10
2864.844472
20
472.557638
11
2862.704197
21
501.995653
0
LINE
8
Layer 1
10
2862.704197
20
501.995653
11
2860.161875
21
532.648358
0
LINE
8
Layer 1
10
2860.161875
20
532.648358
11
2857.053405
21
564.356755
0
LINE
8
Layer 1
10
2857.053405
20
564.356755
11
2855.235584
21
580.557151
0
LINE
8
Layer 1
10
2855.235584
20
580.557151
11
2853.214689
21
596.961847
0
LINE
8
Layer 1
10
2853.214689
20
596.961847
11
2850.970208
21
613.550967
0
LINE
8
Layer 1
10
2850.970208
20
613.550967
11
2848.481628
21
630.304638
0
LINE
8
Layer 1
10
2848.481628
20
630.304638
11
2845.728437
21
647.202983
0
LINE
8
Layer 1
10
2845.728437
20
647.202983
11
2842.690123
21
664.226129
0
LINE
8
Layer 1
10
2842.690123
20
664.226129
11
2839.346173
21
681.354201
0
LINE
8
Layer 1
10
2839.346173
20
681.354201
11
2835.676074
21
698.567325
0
LINE
8
Layer 1
10
2835.676074
20
698.567325
11
2831.659316
21
715.845625
0
LINE
8
Layer 1
10
2831.659316
20
715.845625
11
2827.275384
21
733.169228
0
LINE
8
Layer 1
10
2827.275384
20
733.169228
11
2822.503766
21
750.518258
0
LINE
8
Layer 1
10
2822.503766
20
750.518258
11
2817.323951
21
767.872841
0
LINE
8
Layer 1
10
2817.323951
20
767.872841
11
2811.715426
21
785.213102
0
LINE
8
Layer 1
10
2811.715426
20
785.213102
11
2805.657678
21
802.519166
0
LINE
8
Layer 1
10
2805.657678
20
802.519166
11
2799.130196
21
819.771160
0
LINE
8
Layer 1
10
2799.130196
20
819.771160
11
2792.112466
21
836.949208
0
LINE
8
Layer 1
10
2792.112466
20
836.949208
11
2784.583976
21
854.033435
0
LINE
8
Layer 1
10
2784.583976
20
854.033435
11
2776.524214
21
871.003968
0
LINE
8
Layer 1
10
2776.524214
20
871.003968
11
2767.912668
21
887.840931
0
LINE
8
Layer 1
10
2767.912668
20
887.840931
11
2758.728825
21
904.524450
0
LINE
8
Layer 1
10
2758.728825
20
904.524450
11
2753.915882
21
912.802457
0
LINE
8
Layer 1
10
2753.915882
20
912.802457
11
2748.952173
21
921.034650
0
LINE
8
Layer 1
10
2748.952173
20
921.034650
11
2743.835133
21
929.218545
0
LINE
8
Layer 1
10
2743.835133
20
929.218545
11
2738.562199
21
937.351657
0
LINE
8
Layer 1
10
2738.562199
20
937.351657
11
2733.130806
21
945.431501
0
LINE
8
Layer 1
10
2733.130806
20
945.431501
11
2727.538391
21
953.455595
0
LINE
8
Layer 1
10
2727.538391
20
953.455595
11
2721.782389
21
961.421453
0
LINE
8
Layer 1
10
2721.782389
20
961.421453
11
2715.860237
21
969.326591
0
LINE
8
Layer 1
10
2715.860237
20
969.326591
11
2709.769370
21
977.168524
0
LINE
8
Layer 1
10
2709.769370
20
977.168524
11
2703.507224
21
984.944769
0
LINE
8
Layer 1
10
2703.507224
20
984.944769
11
2697.071235
21
992.652841
0
LINE
8
Layer 1
10
2697.071235
20
992.652841
11
2690.458840
21
1000.290255
0
LINE
8
Layer 1
10
2690.458840
20
1000.290255
11
2683.667473
21
1007.854528
0
LINE
8
Layer 1
10
2683.667473
20
1007.854528
11
2676.694572
21
1015.343175
0
LINE
8
Layer 1
10
2676.694572
20
1015.343175
11
2669.537572
21
1022.753711
0
LINE
8
Layer 1
10
2669.537572
20
1022.753711
11
2662.193908
21
1030.083653
0
LINE
8
Layer 1
10
2662.193908
20
1030.083653
11
2654.661018
21
1037.330516
0
LINE
8
Layer 1
10
2654.661018
20
1037.330516
11
2646.936336
21
1044.491816
0
LINE
8
Layer 1
10
2646.936336
20
1044.491816
11
2639.017300
21
1051.565067
0
LINE
8
Layer 1
10
2639.017300
20
1051.565067
11
2630.901344
21
1058.547787
0
LINE
8
Layer 1
10
2630.901344
20
1058.547787
11
2622.585904
21
1065.437491
0
LINE
8
Layer 1
10
2622.585904
20
1065.437491
11
2614.068418
21
1072.231694
0
LINE
8
Layer 1
10
2614.068418
20
1072.231694
11
2605.346320
21
1078.927912
0
LINE
8
Layer 1
10
2605.346320
20
1078.927912
11
2596.417047
21
1085.523661
0
LINE
8
Layer 1
10
2596.417047
20
1085.523661
11
2587.278034
21
1092.016456
0
LINE
8
Layer 1
10
2587.278034
20
1092.016456
11
2577.926718
21
1098.403813
0
LINE
8
Layer 1
10
2577.926718
20
1098.403813
11
2568.360534
21
1104.683248
0
LINE
8
Layer 1
10
2568.360534
20
1104.683248
11
2558.576918
21
1110.852277
0
LINE
8
Layer 1
10
2558.576918
20
1110.852277
11
2548.573307
21
1116.908414
0
LINE
8
Layer 1
10
2548.573307
20
1116.908414
11
2538.347136
21
1122.849176
0
LINE
8
Layer 1
10
2538.347136
20
1122.849176
11
2527.895842
21
1128.672079
0
LINE
8
Layer 1
10
2527.895842
20
1128.672079
11
2517.216859
21
1134.374638
0
LINE
8
Layer 1
10
2517.216859
20
1134.374638
11
2506.307625
21
1139.954368
0
LINE
8
Layer 1
10
2506.307625
20
1139.954368
11
2495.165575
21
1145.408786
0
LINE
8
Layer 1
10
2495.165575
20
1145.408786
11
2483.788145
21
1150.735407
0
LINE
8
Layer 1
10
2483.788145
20
1150.735407
11
2472.172771
21
1155.931746
0
LINE
8
Layer 1
10
2472.172771
20
1155.931746
11
2460.316889
21
1160.995321
0
LINE
8
Layer 1
10
2460.316889
20
1160.995321
11
2448.217935
21
1165.923645
0
LINE
8
Layer 1
10
2448.217935
20
1165.923645
11
2435.873344
21
1170.714235
0
LINE
8
Layer 1
10
2435.873344
20
1170.714235
11
2423.280554
21
1175.364606
0
LINE
8
Layer 1
10
2423.280554
20
1175.364606
11
2410.436999
21
1179.872275
0
LINE
8
Layer 1
10
2410.436999
20
1179.872275
11
2397.340116
21
1184.234756
0
LINE
8
Layer 1
10
2397.340116
20
1184.234756
11
2383.987341
21
1188.449566
0
LINE
8
Layer 1
10
2383.987341
20
1188.449566
11
2370.376109
21
1192.514220
0
LINE
8
Layer 1
10
2370.376109
20
1192.514220
11
2356.503857
21
1196.426234
0
LINE
8
Layer 1
10
2356.503857
20
1196.426234
11
2342.368020
21
1200.183123
0
LINE
8
Layer 1
10
2342.368020
20
1200.183123
11
2327.966035
21
1203.782403
0
LINE
8
Layer 1
10
2327.966035
20
1203.782403
11
2313.295337
21
1207.221591
0
LINE
8
Layer 1
10
2313.295337
20
1207.221591
11
2298.353363
21
1210.498200
0
LINE
8
Layer 1
10
2298.353363
20
1210.498200
11
2283.137548
21
1213.609748
0
LINE
8
Layer 1
10
2283.137548
20
1213.609748
11
2267.645328
21
1216.553750
0
LINE
8
Layer 1
10
2267.645328
20
1216.553750
11
2251.874139
21
1219.327721
0
LINE
8
Layer 1
10
2251.874139
20
1219.327721
11
2235.821418
21
1221.929177
0
LINE
8
Layer 1
10
2235.821418
20
1221.929177
11
2219.484600
21
1224.355635
0
LINE
8
Layer 1
10
2219.484600
20
1224.355635
11
2202.861121
21
1226.604608
0
LINE
8
Layer 1
10
2202.861121
20
1226.604608
11
2185.948417
21
1228.673614
0
LINE
8
Layer 1
10
2185.948417
20
1228.673614
11
2168.743924
21
1230.560168
0
LINE
8
Layer 1
10
2168.743924
20
1230.560168
11
2151.245078
21
1232.261785
0
LINE
8
Layer 1
10
2151.245078
20
1232.261785
11
2133.449314
21
1233.775981
0
LINE
8
Layer 1
10
2133.449314
20
1233.775981
11
2115.354070
21
1235.100273
0
LINE
8
Layer 1
10
2115.354070
20
1235.100273
11
2096.956780
21
1236.232175
0
LINE
8
Layer 1
10
2096.956780
20
1236.232175
11
2078.254882
21
1237.169203
0
LINE
8
Layer 1
10
2078.254882
20
1237.169203
11
2059.245809
21
1237.908873
0
LINE
8
Layer 1
10
2059.245809
20
1237.908873
11
2039.927000
21
1238.448700
0
LINE
8
Layer 1
10
2039.927000
20
1238.448700
11
2001.178669
21
1239.166471
0
LINE
8
Layer 1
10
2001.178669
20
1239.166471
11
1962.836132
21
1239.569943
0
LINE
8
Layer 1
10
1962.836132
20
1239.569943
11
1924.905930
21
1239.668814
0
LINE
8
Layer 1
10
1924.905930
20
1239.668814
11
1887.394604
21
1239.472780
0
LINE
8
Layer 1
10
1887.394604
20
1239.472780
11
1850.308696
21
1238.991535
0
LINE
8
Layer 1
10
1850.308696
20
1238.991535
11
1813.654747
21
1238.234777
0
LINE
8
Layer 1
10
1813.654747
20
1238.234777
11
1777.439299
21
1237.212201
0
LINE
8
Layer 1
10
1777.439299
20
1237.212201
11
1741.668893
21
1235.933503
0
LINE
8
Layer 1
10
1741.668893
20
1235.933503
11
1706.350070
21
1234.408380
0
LINE
8
Layer 1
10
1706.350070
20
1234.408380
11
1671.489373
21
1232.646527
0
LINE
8
Layer 1
10
1671.489373
20
1232.646527
11
1637.093343
21
1230.657640
0
LINE
8
Layer 1
10
1637.093343
20
1230.657640
11
1603.168520
21
1228.451416
0
LINE
8
Layer 1
10
1603.168520
20
1228.451416
11
1569.721447
21
1226.037551
0
LINE
8
Layer 1
10
1569.721447
20
1226.037551
11
1536.758665
21
1223.425739
0
LINE
8
Layer 1
10
1536.758665
20
1223.425739
11
1504.286716
21
1220.625678
0
LINE
8
Layer 1
10
1504.286716
20
1220.625678
11
1472.312141
21
1217.647064
0
LINE
8
Layer 1
10
1472.312141
20
1217.647064
11
1440.841481
21
1214.499592
0
LINE
8
Layer 1
10
1440.841481
20
1214.499592
11
1409.881277
21
1211.192959
0
LINE
8
Layer 1
10
1409.881277
20
1211.192959
11
1379.438073
21
1207.736860
0
LINE
8
Layer 1
10
1379.438073
20
1207.736860
11
1349.518407
21
1204.140992
0
LINE
8
Layer 1
10
1349.518407
20
1204.140992
11
1320.128824
21
1200.415051
0
LINE
8
Layer 1
10
1320.128824
20
1200.415051
11
1291.275863
21
1196.568732
0
LINE
8
Layer 1
10
1291.275863
20
1196.568732
11
1262.966066
21
1192.611731
0
LINE
8
Layer 1
10
1262.966066
20
1192.611731
11
1235.205975
21
1188.553746
0
LINE
8
Layer 1
10
1235.205975
20
1188.553746
11
1208.002131
21
1184.404471
0
LINE
8
Layer 1
10
1208.002131
20
1184.404471
11
1181.361075
21
1180.173603
0
LINE
8
Layer 1
10
1181.361075
20
1180.173603
11
1155.289350
21
1175.870838
0
LINE
8
Layer 1
10
1155.289350
20
1175.870838
11
1129.793496
21
1171.505871
0
LINE
8
Layer 1
10
1129.793496
20
1171.505871
11
1080.555569
21
1162.628118
0
LINE
8
Layer 1
10
1080.555569
20
1162.628118
11
1033.699625
21
1153.617912
0
LINE
8
Layer 1
10
1033.699625
20
1153.617912
11
989.277997
21
1144.552823
0
LINE
8
Layer 1
10
989.277997
20
1144.552823
11
947.343016
21
1135.510416
0
LINE
8
Layer 1
10
947.343016
20
1135.510416
11
907.947014
21
1126.568262
0
LINE
8
Layer 1
10
907.947014
20
1126.568262
11
871.142322
21
1117.803928
0
LINE
8
Layer 1
10
871.142322
20
1117.803928
11
836.981273
21
1109.294981
0
LINE
8
Layer 1
10
836.981273
20
1109.294981
11
805.516198
21
1101.118992
0
LINE
8
Layer 1
10
805.516198
20
1101.118992
11
776.799429
21
1093.353527
0
LINE
8
Layer 1
10
776.799429
20
1093.353527
11
750.883297
21
1086.076155
0
LINE
8
Layer 1
10
750.883297
20
1086.076155
11
727.820134
21
1079.364443
0
LINE
8
Layer 1
10
727.820134
20
1079.364443
11
707.662273
21
1073.295961
0
LINE
8
Layer 1
10
707.662273
20
1073.295961
11
690.462044
21
1067.948277
0
LINE
8
Layer 1
10
690.462044
20
1067.948277
11
676.271779
21
1063.398958
0
LINE
8
Layer 1
10
676.271779
20
1063.398958
11
657.130470
21
1057.005689
0
LINE
8
Layer 1
10
657.130470
20
1057.005689
11
650.657000
21
1054.736700
0
LINE
8
Layer 1
10
650.657000
20
1054.736700
11
642.130991
21
1050.931792
0
LINE
8
Layer 1
10
642.130991
20
1050.931792
11
631.982210
21
1046.156955
0
LINE
8
Layer 1
10
631.982210
20
1046.156955
11
618.361785
21
1039.450573
0
LINE
8
Layer 1
10
618.361785
20
1039.450573
11
601.608869
21
1030.800179
0
LINE
8
Layer 1
10
601.608869
20
1030.800179
11
582.062617
21
1020.193305
0
LINE
8
Layer 1
10
582.062617
20
1020.193305
11
571.347975
21
1014.152292
0
LINE
8
Layer 1
10
571.347975
20
1014.152292
11
560.062182
21
1007.617483
0
LINE
8
Layer 1
10
560.062182
20
1007.617483
11
548.247632
21
1000.587321
0
LINE
8
Layer 1
10
548.247632
20
1000.587321
11
535.946719
21
993.060247
0
LINE
8
Layer 1
10
535.946719
20
993.060247
11
523.201837
21
985.034702
0
LINE
8
Layer 1
10
523.201837
20
985.034702
11
510.055382
21
976.509128
0
LINE
8
Layer 1
10
510.055382
20
976.509128
11
496.549746
21
967.481967
0
LINE
8
Layer 1
10
496.549746
20
967.481967
11
482.727325
21
957.951660
0
LINE
8
Layer 1
10
482.727325
20
957.951660
11
468.630512
21
947.916648
0
LINE
8
Layer 1
10
468.630512
20
947.916648
11
454.301702
21
937.375374
0
LINE
8
Layer 1
10
454.301702
20
937.375374
11
439.783289
21
926.326279
0
LINE
8
Layer 1
10
439.783289
20
926.326279
11
425.117668
21
914.767804
0
LINE
8
Layer 1
10
425.117668
20
914.767804
11
410.347232
21
902.698390
0
LINE
8
Layer 1
10
410.347232
20
902.698390
11
395.514377
21
890.116481
0
LINE
8
Layer 1
10
395.514377
20
890.116481
11
380.661495
21
877.020516
0
LINE
8
Layer 1
10
380.661495
20
877.020516
11
365.830982
21
863.408939
0
LINE
8
Layer 1
10
365.830982
20
863.408939
11
351.065232
21
849.280189
0
LINE
8
Layer 1
10
351.065232
20
849.280189
11
336.406638
21
834.632709
0
LINE
8
Layer 1
10
336.406638
20
834.632709
11
321.897596
21
819.464941
0
LINE
8
Layer 1
10
321.897596
20
819.464941
11
307.580500
21
803.775325
0
LINE
8
Layer 1
10
307.580500
20
803.775325
11
293.497743
21
787.562304
0
LINE
8
Layer 1
10
293.497743
20
787.562304
11
279.691721
21
770.824319
0
LINE
8
Layer 1
10
279.691721
20
770.824319
11
266.204827
21
753.559811
0
LINE
8
Layer 1
10
266.204827
20
753.559811
11
259.594301
21
744.729625
0
LINE
8
Layer 1
10
259.594301
20
744.729625
11
253.079456
21
735.767223
0
LINE
8
Layer 1
10
253.079456
20
735.767223
11
246.665589
21
726.672412
0
LINE
8
Layer 1
10
246.665589
20
726.672412
11
240.358001
21
717.444996
0
LINE
8
Layer 1
10
240.358001
20
717.444996
11
234.161991
21
708.084780
0
LINE
8
Layer 1
10
234.161991
20
708.084780
11
228.082858
21
698.591571
0
LINE
8
Layer 1
10
228.082858
20
698.591571
11
222.125901
21
688.965172
0
LINE
8
Layer 1
10
222.125901
20
688.965172
11
216.296420
21
679.205389
0
LINE
8
Layer 1
10
216.296420
20
679.205389
11
210.599714
21
669.312028
0
LINE
8
Layer 1
10
210.599714
20
669.312028
11
205.041082
21
659.284893
0
LINE
8
Layer 1
10
205.041082
20
659.284893
11
199.625824
21
649.123790
0
LINE
8
Layer 1
10
199.625824
20
649.123790
11
194.359238
21
638.828525
0
LINE
8
Layer 1
10
194.359238
20
638.828525
11
189.246624
21
628.398901
0
LINE
8
Layer 1
10
189.246624
20
628.398901
11
184.293282
21
617.834724
0
LINE
8
Layer 1
10
184.293282
20
617.834724
11
179.504511
21
607.135800
0
LINE
8
Layer 1
10
179.504511
20
607.135800
11
174.885609
21
596.301934
0
LINE
8
Layer 1
10
174.885609
20
596.301934
11
170.441877
21
585.332931
0
LINE
8
Layer 1
10
170.441877
20
585.332931
11
166.178613
21
574.228596
0
LINE
8
Layer 1
10
166.178613
20
574.228596
11
162.101117
21
562.988734
0
LINE
8
Layer 1
10
162.101117
20
562.988734
11
158.214688
21
551.613151
0
LINE
8
Layer 1
10
158.214688
20
551.613151
11
154.524625
21
540.101651
0
LINE
8
Layer 1
10
154.524625
20
540.101651
11
151.036228
21
528.454040
0
LINE
8
Layer 1
10
151.036228
20
528.454040
11
147.754796
21
516.670124
0
LINE
8
Layer 1
10
147.754796
20
516.670124
11
144.685628
21
504.749707
0
LINE
8
Layer 1
10
144.685628
20
504.749707
11
141.834023
21
492.692594
0
LINE
8
Layer 1
10
141.834023
20
492.692594
11
139.205281
21
480.498591
0
LINE
8
Layer 1
10
139.205281
20
480.498591
11
136.804702
21
468.167502
0
LINE
8
Layer 1
10
136.804702
20
468.167502
11
134.637583
21
455.699134
0
LINE
8
Layer 1
10
134.637583
20
455.699134
11
132.709225
21
443.093291
0
LINE
8
Layer 1
10
132.709225
20
443.093291
11
131.024928
21
430.349779
0
LINE
8
Layer 1
10
131.024928
20
430.349779
11
129.589989
21
417.468402
0
LINE
8
Layer 1
10
129.589989
20
417.468402
11
128.409709
21
404.448967
0
LINE
8
Layer 1
10
128.409709
20
404.448967
11
127.489386
21
391.291277
0
LINE
8
Layer 1
10
127.489386
20
391.291277
11
126.834321
21
377.995138
0
LINE
8
Layer 1
10
126.834321
20
377.995138
11
126.449812
21
364.560356
0
LINE
8
Layer 1
10
126.449812
20
364.560356
11
126.341158
21
350.986736
0
LINE
8
Layer 1
10
126.341158
20
350.986736
11
126.513660
21
337.274082
0
LINE
8
Layer 1
10
126.513660
20
337.274082
11
126.972615
21
323.422201
0
LINE
8
Layer 1
10
126.972615
20
323.422201
11
127.723324
21
309.430896
0
LINE
8
Layer 1
10
127.723324
20
309.430896
11
128.771086
21
295.299974
0
LINE
8
Layer 1
10
128.771086
20
295.299974
11
130.121200
21
281.029240
0
LINE
8
Layer 1
10
130.121200
20
281.029240
11
131.778965
21
266.618499
0
LINE
8
Layer 1
10
131.778965
20
266.618499
11
133.749681
21
252.067555
0
LINE
8
Layer 1
10
133.749681
20
252.067555
11
136.038646
21
237.376215
0
LINE
8
Layer 1
10
136.038646
20
237.376215
11
138.651161
21
222.544283
0
LINE
8
Layer 1
10
138.651161
20
222.544283
11
141.592524
21
207.571565
0
LINE
8
Layer 1
10
141.592524
20
207.571565
11
144.868035
21
192.457866
0
LINE
8
Layer 1
10
144.868035
20
192.457866
11
148.482993
21
177.202991
0
LINE
8
Layer 1
10
148.482993
20
177.202991
11
152.442697
21
161.806744
0
LINE
8
Layer 1
10
152.442697
20
161.806744
11
156.752447
21
146.268933
0
LINE
8
Layer 1
10
156.752447
20
146.268933
11
161.417541
21
130.589360
0
LINE
8
Layer 1
10
161.417541
20
130.589360
11
166.443280
21
114.767833
0
LINE
8
Layer 1
10
166.443280
20
114.767833
11
171.834962
21
98.804156
0
LINE
8
Layer 1
10
171.834962
20
98.804156
11
177.597887
21
82.698133
0
LINE
8
Layer 1
10
177.597887
20
82.698133
11
183.737354
21
66.449571
0
LINE
8
Layer 1
10
183.737354
20
66.449571
11
190.258663
21
50.058275
0
LINE
8
Layer 1
10
190.258663
20
50.058275
11
197.167111
21
33.524050
0
LINE
8
Layer 1
10
197.167111
20
33.524050
11
204.468000
21
16.846700
0
LINE
8
Layer 1
10
204.468000
20
16.846700
11
204.469000
21
16.848700
 0 
ENDSEC
 0 
EOF